# xmcd
#
# Track frame offsets: 
#        183
#        23340
#        42850
#        53943
#
# Disc length: 1047 seconds
#
# Revision: 2
# Processed by: cddbd v1.5.2PL0 Copyright (c) Steve Scherf et al.
# Submitted via: ExactAudioCopy v1.1
#
DISCID=25041504
DTITLE=Joe Cocker - Unchain My Heart [CDCLS 664]
DYEAR=1992
DGENRE=Soul
TTITLE0=Unchain My Heart (Remix)
TTITLE1=Not Too Young To Die Of A Broken Heart
TTITLE2=Little Bit Of Love
TTITLE3=Please No More
EXTD=
EXTT0=
EXTT1=
EXTT2=
EXTT3=
PLAYORDER=
